<?xml version="1.0" standalone="no"?><!DOCTYPE svg PUBLIC "-//W3C//DTD SVG 1.1//EN" "http://www.w3.org/Graphics/SVG/1.1/DTD/svg11.dtd"><svg t="1499047013304" class="icon" style="" viewBox="0 0 1024 1024" version="1.1" xmlns="http://www.w3.org/2000/svg" p-id="2404" xmlns:xlink="http://www.w3.org/1999/xlink" width="200" height="200"><defs><style type="text/css"></style></defs><path d="M870.4 512H229.862857c0-255.428571 125.6-463.234286 280-463.234286 117.714286 0 218.96 113.337143 260.262857 284.034286l38.4-12.8C759.885714 136.297143 642.205714 0 509.862857 0c-176.445714 0-320 229.714286-320 512H153.6A25.6 25.6 0 0 0 128 537.6v460.8A25.6 25.6 0 0 0 153.6 1024h716.8a25.6 25.6 0 0 0 25.6-25.6V537.6a25.6 25.6 0 0 0-25.6-25.6zM524.8 753.394286v91.428571h-25.6v-91.428571a51.2 51.2 0 1 1 25.6 0z" fill="#1296db" p-id="2405"></path></svg>